<?xml version="1.0" encoding="utf-8"?>
<!-- Generator: Adobe Illustrator 25.0.0, SVG Export Plug-In . SVG Version: 6.00 Build 0)  -->
<svg version="1.1" id="Layer_1" xmlns="http://www.w3.org/2000/svg" xmlns:xlink="http://www.w3.org/1999/xlink" x="0px" y="0px"
	 viewBox="0 0 1200 534.42" style="enable-background:new 0 0 1200 534.42;" xml:space="preserve" style="color:#fff;">
<style type="text/css">
	.st0{fill:#504F4F;}
	.st1{font-family:'TimesNewRomanPSMT';}
	.st2{font-size:113.3317px;}
	.st3{letter-spacing:-9.71;}
	.st4{font-size:90.5428px;}
	.st5{fill:url(#SVGID_1_);}
</style>
<g>
	<text transform="matrix(1.0303 0 0 1 85.5987 473.5836)"><tspan x="0" y="0" class="st0 st1 st2 st3">W</tspan><tspan x="96.99" y="0" class="st0 st1 st4">AVE</tspan><tspan x="283.08" y="0" class="st0 st1 st2"> B</tspan><tspan x="387" y="0" class="st0 st1 st4">REAK</tspan><tspan x="633.47" y="0" class="st0 st1 st2"> D</tspan><tspan x="743.65" y="0" class="st0 st1 st4">ESIGN</tspan></text>
	<linearGradient id="SVGID_1_" gradientUnits="userSpaceOnUse" x1="322.0294" y1="183.6704" x2="877.9694" y2="183.6704">
		<stop  offset="0" style="stop-color:#DADADA"/>
		<stop  offset="0.9559" style="stop-color:#504F4F"/>
	</linearGradient>
	<path class="st5" d="M873.09,81.68c-14.8-39.8-48.28-62.76-87.59-62.76c-30.77,0-139.24,0-143.78,0c-4.54,0-4.54,1.76-6.72,6.48
		c-2.18,4.72-90.23,186.8-90.23,186.8s-89.95-187.53-91.5-190.16c-1.54-2.63-1.54-2.81-3.63-2.72c-2.09,0.09-28.05,0-28.05,0
		s104.11,215.85,105.75,220.03c1.63,4.18,1.45,6.26,0.18,8.99c-1.27,2.72-32.31,67.35-32.31,67.35S355.8,27.21,354.43,24.22
		c-1.36-3-2.09-4.9-4.81-4.9c-2.72,0-27.59-0.07-27.59-0.07s155.28,323.59,156.1,325.3s2.38,3.49,8.24,3.27
		c7.48-0.29,17.77,0.02,20.22,0.01c2.45-0.01,4.22-1.51,5.38-4.09c1.16-2.59,32.88-67.46,32.88-67.46s31.79,65.56,32.75,67.46
		c0.95,1.91,2.36,4.7,7.76,4.7c6.88,0,100.01-0.27,106.75-0.2c6.74,0.07,39.42,1.23,56.3-6.6c15.45-7.15,32.38-19.4,41.46-39.28
		c7.17-15.7,10.89-31.41,8.53-49.11c-2.45-15.43-9.17-32.4-27.68-50.56c12.71,0.18,36.13,3.63,65.99-15.61
		C854.53,176.94,891.16,135.68,873.09,81.68z M764.26,290.76c-21.65,36.9-56.1,32.68-63.58,32.54c-7.49-0.14-71.69,0.34-71.69,0.34
		l55.89-114.85c0,0,1.77-4.63,4.08-4.9c28.86,1.23,36.63,1.09,53.51,9.26C768.21,228.4,776.79,267.34,764.26,290.76z M843.86,129.42
		c-18.97,51.19-66.26,46.16-77.7,46.35s-79.65,0.22-89.59,0.08c-8.99-0.41-9.53,0.68-11.16,4.08
		c-1.63,3.4-68.21,141.46-68.21,141.46s-29.91-62.9-33.54-69.62c-3.63-6.72-3.09-7.62-1.82-10.53
		c1.27-2.9,88.95-185.53,91.31-190.89c2.36-5.36,3.45-4.9,7.35-4.9c3.87,0,87.99-0.18,128.57,0.7c0.75,0.02,1.51,0.06,2.26,0.17
		C828.97,51.41,855.82,90.95,843.86,129.42z"/>
</g>
</svg>
